<?xml version="1.0" encoding="utf-8"?>
<!-- Generator: Adobe Illustrator 23.1.0, SVG Export Plug-In . SVG Version: 6.00 Build 0)  -->
<svg version="1.1" id="Layer_1" focusable="false" xmlns="http://www.w3.org/2000/svg" xmlns:xlink="http://www.w3.org/1999/xlink"
	 x="0px" y="0px" viewBox="0 0 406.9 290" style="enable-background:new 0 0 406.9 290;" xml:space="preserve">
<style type="text/css">
	.st0{fill:#F4753F;}
</style>
<path class="st0" d="M14.5,53.3h377.8c8,0,14.5-5.3,14.5-11.8V11.8c0-6.5-6.5-11.8-14.5-11.8H14.5C6.5,0,0,5.3,0,11.8v29.6
	C0,48,6.5,53.3,14.5,53.3z M14.5,171.6h377.8c8,0,14.5-5.3,14.5-11.8v-29.6c0-6.5-6.5-11.8-14.5-11.8H14.5c-8,0-14.5,5.3-14.5,11.8
	v29.6C0,166.3,6.5,171.6,14.5,171.6z M14.5,290h377.8c8,0,14.5-5.3,14.5-11.8v-29.6c0-6.5-6.5-11.8-14.5-11.8H14.5
	c-8,0-14.5,5.3-14.5,11.8v29.6C0,284.7,6.5,290,14.5,290z"/>
</svg>
