<?xml version="1.0" encoding="utf-8"?>
<!-- Generator: Adobe Illustrator 23.0.1, SVG Export Plug-In . SVG Version: 6.00 Build 0)  -->
<!DOCTYPE svg PUBLIC "-//W3C//DTD SVG 1.1//EN" "http://www.w3.org/Graphics/SVG/1.1/DTD/svg11.dtd" [
	<!ENTITY ns_extend "http://ns.adobe.com/Extensibility/1.0/">
	<!ENTITY ns_ai "http://ns.adobe.com/AdobeIllustrator/10.0/">
	<!ENTITY ns_graphs "http://ns.adobe.com/Graphs/1.0/">
	<!ENTITY ns_vars "http://ns.adobe.com/Variables/1.0/">
	<!ENTITY ns_imrep "http://ns.adobe.com/ImageReplacement/1.0/">
	<!ENTITY ns_sfw "http://ns.adobe.com/SaveForWeb/1.0/">
	<!ENTITY ns_custom "http://ns.adobe.com/GenericCustomNamespace/1.0/">
	<!ENTITY ns_adobe_xpath "http://ns.adobe.com/XPath/1.0/">
]>
<svg version="1.1" id="Livello_1" xmlns:x="&ns_extend;" xmlns:i="&ns_ai;" xmlns:graph="&ns_graphs;"
	 xmlns="http://www.w3.org/2000/svg" xmlns:xlink="http://www.w3.org/1999/xlink" x="0px" y="0px" viewBox="0 0 239.9 234"
	 style="enable-background:new 0 0 239.9 234;" xml:space="preserve">
<style type="text/css">
	.st0{fill:#2E0013;}
	.st1{fill:#FF3F94;}
</style>
<metadata>
	<sfw  xmlns="&ns_sfw;">
		<slices></slices>
		<sliceSourceBounds  bottomLeftOrigin="true" height="234" width="239.9" x="0.1" y="6"></sliceSourceBounds>
	</sfw>
</metadata>
<g>
	<rect x="10.1" y="10.1" class="st0" width="220" height="213.9"/>
	<path class="st1" d="M239.9,0v234H0V0H239.9z M10.1,10.1v213.9h220V10.1H10.1z M87.7,162.2V54.6c0-0.5-0.1-0.8-0.2-0.9
		c-0.2-0.1-0.5-0.2-0.9-0.2H71.1c-0.5,0-0.8,0.1-1,0.3c-0.2,0.2-0.3,0.6-0.3,1v107.4c0,0.3,0.1,0.6,0.3,0.8c0.2,0.2,0.6,0.3,1,0.3
		h15.3c0.6,0,1-0.1,1.1-0.2C87.7,163,87.7,162.7,87.7,162.2L87.7,162.2z M105.3,123.4c0,14,3.6,24.4,10.7,31.3
		c7.2,6.9,16.2,10.3,27.2,10.3c4.4,0,8.8-0.5,13.3-1.4c4.4-0.9,8.8-2.4,13-4.6c0.3-0.1,0.5-0.3,0.7-0.5c0.1-0.1,0.2-0.4,0.2-0.7
		c-0.3-1.8-0.5-3.6-0.5-5.4c0-1.7,0-3.3,0-4.7V54.4c0-0.3-0.1-0.5-0.2-0.7c-0.2-0.1-0.4-0.2-0.7-0.2h-16.5c-0.2,0-0.3,0.1-0.6,0.2
		c-0.2,0.2-0.3,0.4-0.3,0.7v26.7c-0.9-0.1-1.8-0.2-2.5-0.2c-0.8,0-1.7,0-2.7,0c-12.6,0-22.7,4.1-30,12.3
		C109,101.5,105.3,111.5,105.3,123.4L105.3,123.4z M151.7,97.1v50.7c-0.9,0.5-2,0.8-3.3,0.9c-1.3,0.2-2.6,0.2-3.8,0.2
		c-5.8,0-10.7-2.1-14.7-6.2c-4-4.1-6.1-10.8-6.1-20.1c0-8.4,2.1-14.9,6.2-19.5c4.1-4.6,9.4-7,15.8-7c1.2,0,2.3,0.1,3.3,0.2
		C150.1,96.6,151,96.8,151.7,97.1L151.7,97.1z"/>
</g>
</svg>
