<?xml version="1.0" encoding="utf-8"?>
<!-- Generator: Adobe Illustrator 23.1.0, SVG Export Plug-In . SVG Version: 6.00 Build 0)  -->
<svg version="1.1" id="Logo" xmlns="http://www.w3.org/2000/svg" xmlns:xlink="http://www.w3.org/1999/xlink" x="0px" y="0px"
	 viewBox="0 0 762.5 116.2" style="enable-background:new 0 0 762.5 116.2;" xml:space="preserve">
<style type="text/css">
	.st0{enable-background:new    ;}
	.st1{fill:#F4753D;}
	.st2{fill:#FFFFFF;}
</style>
<g class="st0">
	<path class="st1" d="M14.9,56L2.2,39l18.8-17l16.5,0.1l-18.8,17l12.6,17L14.9,56z"/>
</g>
<g class="st0">
	<path class="st2" d="M52.7,47.1l-3.5,19.1l-13.2-0.1l9.8-54.5l21.4,0.1c5.7,0,9.9,1.3,12.8,3.8c2.9,2.5,4.3,5.9,4.3,10.3
		c0,1-0.1,2.3-0.4,3.9c-0.6,3.4-2,6.4-4,9c-2,2.6-4.6,4.7-7.9,6.2c-3.2,1.5-7,2.2-11.3,2.2L52.7,47.1z M70.5,29.6
		c0.1-0.8,0.2-1.4,0.2-1.8c0-3.6-2.3-5.4-6.8-5.4l-6.7,0l-2.5,14.2l6.7,0C66.6,36.6,69.6,34.3,70.5,29.6z"/>
	<path class="st2" d="M119.5,56.6L99,56.5l-5.2,9.9l-14-0.1l29.8-54l15.2,0.1L135,66.6l-14-0.1L119.5,56.6z M117.9,46.6l-3.2-20.1
		l-10.4,20L117.9,46.6z"/>
	<path class="st2" d="M189.1,12.4l-1.9,10.5l-14.8-0.1l-7.9,44l-13.3-0.1l7.9-44l-14.7-0.1l1.9-10.5L189.1,12.4z"/>
	<path class="st2" d="M230,16.3c2.9,2.5,4.3,5.9,4.3,10c0,1.3-0.1,2.4-0.3,3.5c-0.7,4-2.5,7.3-5.1,10.1c-2.7,2.8-6.2,4.6-10.5,5.7
		l9.1,21.5L212.8,67l-8.1-20.6l-3,0L198,66.9l-13.2-0.1l9.8-54.5l22.5,0.1C222.8,12.5,227.1,13.8,230,16.3z M220.5,28.9
		c0-3.5-2.2-5.3-6.5-5.4l-8.1,0l-2.6,13.8l8.2,0c5.1,0,8.1-2.2,8.9-6.8C220.5,29.8,220.5,29.3,220.5,28.9z"/>
	<path class="st2" d="M256.9,12.7L247,67.1l-13.2-0.1l9.8-54.5L256.9,12.7z"/>
	<path class="st2" d="M307.2,17.8c3.9,3.7,5.9,8.6,6.1,14.8l-13.9-0.1c-0.6-2.5-1.8-4.5-3.6-6c-1.9-1.4-4.3-2.2-7.3-2.2
		c-3.8,0-7.2,1.4-10,4.2c-2.9,2.8-4.8,6.6-5.6,11.3c-0.3,1.5-0.4,2.9-0.4,3.9c0,3.6,0.9,6.4,2.8,8.5c1.9,2.1,4.5,3.1,7.7,3.1
		c2.9,0,5.6-0.7,8-2.1c2.4-1.4,4.3-3.4,5.8-5.8l14,0.1c-2.5,6.2-6.4,11.1-11.6,14.7c-5.2,3.7-11.3,5.5-18.1,5.4
		c-4.6,0-8.6-0.9-11.9-2.8c-3.3-1.8-5.9-4.4-7.6-7.6c-1.7-3.3-2.6-7.1-2.6-11.4c0-2.1,0.2-4.1,0.6-6.1c1-5.4,2.9-10.2,5.9-14.4
		c3-4.2,6.6-7.5,11.1-9.8c4.4-2.3,9.3-3.5,14.6-3.4C297.9,12.3,303.3,14.2,307.2,17.8z"/>
	<path class="st2" d="M345.2,39.8l17,27.9l-16-0.1L332.1,43l-4.4,24.5l-13.2-0.1l9.8-54.5l13.2,0.1l-4.4,24l23-24l15.8,0.1
		L345.2,39.8z"/>
	<path class="st2" d="M428.5,35.6c-2.1,2.2-4.7,3.6-7.7,4.2c2.8,0.7,4.9,2,6.4,3.9c1.5,1.9,2.3,4.2,2.2,6.8c0,0.8-0.1,1.6-0.2,2.5
		c-0.8,4.7-3.1,8.3-6.6,10.9c-3.6,2.6-8.3,3.9-14.1,3.9l-25.4-0.1l9.8-54.5l24.8,0.1c4.9,0,8.6,1,11.3,2.9c2.6,1.9,4,4.6,3.9,8.2
		c0,0.6-0.1,1.6-0.3,2.9C432,30.7,430.7,33.5,428.5,35.6z M416.2,49.8c0-1.5-0.5-2.7-1.6-3.6c-1.1-0.9-2.7-1.3-4.7-1.3l-9.3,0
		l-2.3,12.3l9.4,0c4.9,0,7.7-2,8.4-6C416.2,50.6,416.2,50.1,416.2,49.8z M402.2,35.6l8.6,0c4.6,0,7.2-1.9,8-5.8
		c0.1-0.6,0.2-1.1,0.2-1.4c0-3-2-4.5-6.1-4.5l-8.5,0L402.2,35.6z"/>
	<path class="st2" d="M478.7,17.5c2.9,2.5,4.3,5.9,4.3,10c0,1.3-0.1,2.4-0.3,3.5c-0.7,4-2.5,7.3-5.1,10.1c-2.7,2.8-6.2,4.7-10.5,5.7
		l9.1,21.5l-14.6-0.1l-8.1-20.6l-3,0l-3.7,20.6L433.5,68l9.8-54.5l22.5,0.1C471.5,13.7,475.8,14.9,478.7,17.5z M469.2,30.1
		c0-3.5-2.2-5.3-6.5-5.4l-8.1,0L452,38.5l8.2,0c5.1,0,8.1-2.3,8.9-6.8C469.2,31,469.2,30.4,469.2,30.1z"/>
	<path class="st2" d="M518.2,58.5l-20.4-0.1l-5.2,9.9l-14-0.1l29.8-54l15.2,0.1l10.2,54.2l-14-0.1L518.2,58.5z M516.7,48.4
		l-3.2-20.1l-10.4,20L516.7,48.4z"/>
	<path class="st2" d="M586.8,55.6c-3,4.1-6.9,7.3-11.6,9.6c-4.7,2.3-10,3.4-15.8,3.4l-20.6-0.1l9.8-54.5l20.6,0.1
		c5.1,0,9.5,0.9,13.1,2.7c3.6,1.8,6.4,4.3,8.3,7.5c1.9,3.2,2.8,7,2.8,11.3c0,2-0.2,3.9-0.6,5.8C591.9,46.7,589.9,51.4,586.8,55.6z
		 M573.1,52.8c3.4-2.7,5.5-6.5,6.4-11.5c0.3-1.4,0.4-2.7,0.4-3.7c0-3.8-1.2-6.7-3.6-8.8c-2.4-2.1-5.8-3.1-10.2-3.1l-6.2,0l-5.6,31.1
		l6.2,0C565.5,56.8,569.7,55.5,573.1,52.8z"/>
	<path class="st2" d="M610.4,58.7l17.6,0.1l-1.8,10.1l-30.8-0.1l9.8-54.5l13.2,0.1L610.4,58.7z"/>
	<path class="st2" d="M653.4,25l-2,11.4l18.4,0.1l-1.8,9.9l-18.4-0.1l-2.1,12.1l20.7,0.1l-1.9,10.6l-33.9-0.2l9.8-54.5l33.9,0.2
		l-1.9,10.5L653.4,25z"/>
	<path class="st2" d="M730.6,14.9l-25.5,36.3l-3.2,18.1l-13.3-0.1l3.2-18.1l-12.3-36.5l15.1,0.1l6.5,22.2l14.4-22.1L730.6,14.9z"/>
</g>
<g class="st0">
	<path class="st1" d="M731.2,25.3l16.5,0.1l12.6,17.2l-18.8,16.9L725,59.3l18.8-16.9L731.2,25.3z"/>
</g>
</svg>
